# xmcd
#
# Track frame offsets:
#	150
#	14456
#	27411
#	42079
#	53229
#	67981
#	80290
#	94422
#	106589
#	121257
#	133434
#	149154
#	164693
#	179215
#	196112
#	207513
#	219722
#	232628
#	243744
#	257660
#
# Disc length: 3657 seconds
#
# Revision: 1
# Processed by: cddbd v1.5.2PL0 Copyright (c) Steve Scherf et al.
# Submitted via: audiograbber 1.83.01
#
DISCID=2d0e4714
DTITLE=Lacy J. Dalton - 16th Avenue and Takin' It Easy [remastered 2014]
DYEAR=1982
DGENRE=Country
TTITLE0=16th Avenue - 16th Avenue
TTITLE1=16th Avenue - Rained On
TTITLE2=16th Avenue - Blue-Eyed Blues
TTITLE3=16th Avenue - You Can't Take The Texas Out Of Me
TTITLE4=16th Avenue - One Of The Unsatisfied
TTITLE5=16th Avenue - Jamaica
TTITLE6=16th Avenue - Heartbeat
TTITLE7=16th Avenue - Slow Down
TTITLE8=16th Avenue - Love It Away
TTITLE9=16th Avenue - Imagine That
TTITLE10=Takin' It Easy - Takin' It Easy
TTITLE11=Takin' It Easy - Everybody Makes Mistakes
TTITLE12=Takin' It Easy - Where Were You When I Needed You
TTITLE13=Takin' It Easy - Come To Me
TTITLE14=Takin' It Easy - Comes A Time
TTITLE15=Takin' It Easy - Wild Turkey
TTITLE16=Takin' It Easy - Golden Memories
TTITLE17=Takin' It Easy - Let Me In The Fast Lane
TTITLE18=Takin' It Easy - Feedin' The Fire
TTITLE19=Takin' It Easy - Somebody Killed Dewey Jones' Daughter
EXTD=
EXTT0=
EXTT1=
EXTT2=
EXTT3=
EXTT4=
EXTT5=
EXTT6=
EXTT7=
EXTT8=
EXTT9=
EXTT10=
EXTT11=
EXTT12=
EXTT13=
EXTT14=
EXTT15=
EXTT16=
EXTT17=
EXTT18=
EXTT19=
PLAYORDER=
